<svg width="256" height="71" viewBox="0 0 256 71" fill="none" xmlns="http://www.w3.org/2000/svg">
<path d="M1.07141 6.55518C1.07141 4.34604 2.86227 2.55518 5.07141 2.55518H249.071C251.281 2.55518 253.071 4.34604 253.071 6.55518V63.5552C253.071 65.7643 251.281 67.5552 249.071 67.5552H5.07141C2.86227 67.5552 1.07141 65.7643 1.07141 63.5552V6.55518Z" fill="black"/>
<path d="M211.355 69.4158C197.513 69.0169 186.616 70.7802 169.745 70.5309C152.873 70.2817 150.346 69.3464 131.024 69.5568C111.703 69.7672 92.3709 69.1275 83.7677 69.5118C75.165 69.8962 74.257 68.734 62.0402 68.9921C49.8242 69.2502 42.4201 69.0985 31.7361 68.7207C26.4888 68.5352 15.9018 68.363 5.07141 68.2908C2.54023 68.3381 0.294962 66.0421 0.365897 63.5552C0.391409 54.5119 0.334061 45.9966 0.142047 41.0578C-0.322006 29.1216 0.483185 15.5079 0.674152 7.32061C0.680235 7.05981 0.686547 6.80469 0.693069 6.55518C0.774387 4.07356 2.71211 2.71462 4.08654 2.50047C4.76123 2.38435 5.07337 2.50287 5.07141 2.5687C5.07141 2.56875 5.07141 2.56879 5.07141 2.56884C5.07067 2.67142 4.60613 2.70552 3.85599 2.96257C2.58715 3.37972 1.31757 4.77801 1.37762 6.55518C1.46404 10.0392 1.60329 14.237 1.82076 18.8997C2.44513 32.2863 1.75517 33.7492 2.07601 51.8258C2.15108 56.0554 2.2437 59.8899 2.33623 63.5552C2.36353 65.0474 3.72845 66.2214 5.07141 66.1321C14.609 65.8995 23.874 65.742 37.2649 66.0031C58.5338 66.4178 63.4191 64.6822 93.4425 65.6658C123.465 66.6494 126.625 64.8342 156.544 64.5928C186.462 64.3515 224.229 65.353 242.265 65.2699C244.446 65.2599 246.718 65.248 249.071 65.2352C249.936 65.2509 250.752 64.4565 250.717 63.5552C250.631 47.6163 250.546 28.6211 250.731 8.81943C250.738 8.06975 250.745 7.31492 250.75 6.55518C250.794 5.6808 249.998 4.82731 249.071 4.84471C225.222 4.77518 197.418 5.21399 172.267 4.83309C144.044 4.40568 104.144 3.86584 85.7107 3.50411C67.278 3.14238 62.7852 3.06079 45.0428 3.28182C34.8443 3.40887 20.7948 3.28911 8.92761 2.82186C2.95526 2.5867 4.3086 2.25928 10.32 2.10262C19.1105 1.87354 26.3267 2.02658 30.8561 1.61739C39.9067 0.799604 43.7534 0.48589 55.1793 0.961872C66.6045 1.43779 71.9881 0.356181 78.6484 0.48067C85.3089 0.605222 85.1994 1.2432 119.065 0.751667C152.931 0.260112 171.497 0.134688 184.322 0.0166814C197.147 -0.101326 223.926 0.452378 244.827 0.252521C246.158 0.239793 247.577 0.228619 249.071 0.218767C252.22 0.102791 255.491 2.9412 255.44 6.55518C255.51 23.6639 255.472 46.9938 255.575 63.5552C255.648 67.2831 252.288 70.1967 249.071 70.109C246.556 70.1343 244.296 70.1647 242.36 70.2017C225.232 70.5289 225.197 69.8148 211.355 69.4158Z" fill="#CD0C7A"/>
<path d="M42.1612 35.8672C42.1612 41.1472 38.7052 44.8432 33.7852 44.8432C28.8892 44.8432 25.4812 41.1472 25.4812 35.8672C25.4812 30.6112 28.9132 26.8912 33.8092 26.8912C38.7292 26.8912 42.1612 30.5872 42.1612 35.8672ZM39.6892 35.8672C39.6892 31.8352 37.3372 29.1712 33.8092 29.1712C30.2812 29.1712 27.9532 31.8352 27.9532 35.8672C27.9532 39.8992 30.2812 42.5872 33.8092 42.5872C37.3372 42.5872 39.6892 39.8752 39.6892 35.8672ZM45.1694 44.5552V27.2032H51.7934C55.1774 27.2032 57.2414 28.9312 57.2414 31.7872C57.2414 33.7792 56.3774 35.1232 54.6494 35.8432C56.5694 36.4672 57.5534 37.8592 57.5534 39.9232C57.5534 42.8032 55.4654 44.5552 52.0334 44.5552H45.1694ZM51.6494 29.2912H47.5214V34.8592H51.7934C53.7374 34.8592 54.8414 33.8032 54.8414 32.0032C54.8414 30.2752 53.6894 29.2912 51.6494 29.2912ZM51.9854 36.8992H47.5214V42.4672H51.9854C54.0014 42.4672 55.1294 41.4352 55.1294 39.6352C55.1294 37.9072 53.9774 36.8992 51.9854 36.8992ZM58.4426 29.3632V27.2032H71.2346V29.3632H66.0266V44.5552H63.6746V29.3632H58.4426ZM84.1831 44.5552H73.5991V27.2032H84.1831V29.3632H75.9511V34.7872H83.3671V36.8752H75.9511V42.3712H84.1831V44.5552ZM89.9433 44.5552H87.5913V27.2032H89.9433L98.8233 40.6192V27.2032H101.175V44.5552H98.8233L89.9433 31.1392V44.5552ZM107.568 27.2032V44.5552H105.216V27.2032H107.568ZM113.967 44.5552H111.615V27.2032H118.167C121.887 27.2032 124.095 29.1712 124.095 32.4112C124.095 34.8112 122.895 36.5392 120.735 37.2352L124.263 44.5552H121.647L118.407 37.6912H113.967V44.5552ZM113.967 29.3152V35.6032H118.191C120.375 35.6032 121.623 34.4272 121.623 32.4352C121.623 30.4192 120.327 29.3152 118.167 29.3152H113.967ZM136.232 27.2032V42.3712H143.864V44.5552H133.88V27.2032H136.232ZM157.003 44.5552H146.419V27.2032H157.003V29.3632H148.771V34.7872H156.187V36.8752H148.771V42.3712H157.003V44.5552ZM169.326 27.2032V42.3712H176.958V44.5552H166.974V27.2032H169.326ZM181.865 27.2032V44.5552H179.513V27.2032H181.865ZM190.736 44.5552L184.136 27.2032H186.656L190.88 38.2912C191.264 39.2752 191.6 40.2592 191.96 41.5552C192.368 40.1872 192.776 39.0352 193.064 38.2672L197.264 27.2032H199.712L193.184 44.5552H190.736ZM204.318 44.5552H201.966V27.2032H208.518C212.238 27.2032 214.446 29.1712 214.446 32.4112C214.446 34.8112 213.246 36.5392 211.086 37.2352L214.614 44.5552H211.998L208.758 37.6912H204.318V44.5552ZM204.318 29.3152V35.6032H208.542C210.726 35.6032 211.974 34.4272 211.974 32.4352C211.974 30.4192 210.678 29.3152 208.518 29.3152H204.318ZM228.253 44.5552H217.669V27.2032H228.253V29.3632H220.021V34.7872H227.437V36.8752H220.021V42.3712H228.253V44.5552Z" fill="white"/>
</svg>
