<svg width="149" height="68" viewBox="0 0 149 68" fill="none" xmlns="http://www.w3.org/2000/svg">
<path d="M1.07141 6.55566C1.07141 4.34653 2.86227 2.55566 5.07141 2.55566H142.071C144.281 2.55566 146.071 4.34653 146.071 6.55566V60.5557C146.071 62.7648 144.281 64.5557 142.071 64.5557H5.07141C2.86227 64.5557 1.07141 62.7648 1.07141 60.5557V6.55566Z" fill="black"/>
<path d="M117.586 66.4163C108.6 66.0173 101.526 67.7806 90.5727 67.5314C79.6198 67.2822 77.9793 66.3468 65.4354 66.5573C52.8922 66.7677 40.3418 66.128 34.7567 66.5122C29.1718 66.8966 28.5823 65.7345 20.6512 65.9926C14.3679 66.1971 10.0455 66.1443 5.07141 65.9257C3.32337 65.885 1.55971 64.8857 0.660801 63.2456C0.271113 62.5479 -0.0290275 61.6095 0.00549713 60.5557C0.335064 52.1002 0.564533 33.8052 0.142047 26.7504C-0.275297 19.7815 0.333954 11.9316 0.59974 6.55566C0.628891 5.88329 0.806135 5.26124 1.06786 4.73465C1.90743 3.07822 3.41407 2.49626 4.42873 2.43322C4.87206 2.40515 5.07208 2.49854 5.07141 2.56919C5.07141 2.56923 5.07141 2.56928 5.07141 2.56933C5.06954 2.66604 4.77409 2.73268 4.27399 2.84807C2.95077 3.10757 1.35373 4.55906 1.47263 6.55566C1.55669 8.31107 1.6699 10.2656 1.82076 12.3654C2.44513 21.056 1.75517 22.0057 2.07601 33.741C2.34887 43.7215 2.85361 50.3135 2.74331 60.5557C2.69611 61.5994 3.49636 62.7696 4.76146 62.9843C4.86416 63.0023 4.9671 63.0134 5.07141 63.0179C18.4552 63.3761 21.7859 61.6948 41.0375 62.6663C60.5281 63.6499 62.5795 61.8347 82.0026 61.5933C101.426 61.3519 125.944 62.3535 137.652 62.2704C139.069 62.2604 140.543 62.2485 142.071 62.2357C142.923 62.2466 143.739 61.4592 143.699 60.5557C143.62 50.6814 143.559 39.1798 143.731 27.2256C143.824 20.8015 143.79 13.7944 143.739 6.55566C143.748 5.67628 142.938 4.89421 142.071 4.9344C132.55 5.00263 122.809 5.04808 113.614 4.83357C95.2924 4.40617 69.3892 3.86633 57.4222 3.5046C45.4558 3.14287 42.5391 3.06128 31.0207 3.28231C24.3999 3.40936 15.279 3.2896 7.57485 2.82234C3.69761 2.58719 4.5762 2.25977 8.47876 2.10311C14.1856 1.87403 18.8703 2.02707 21.8107 1.61788C27.6864 0.800093 30.1837 0.486379 37.6013 0.96236C45.0186 1.43828 48.5136 0.356669 52.8374 0.481159C57.1614 0.60571 57.0903 1.24369 79.0758 0.752155C101.062 0.2606 113.114 0.135176 121.44 0.0171697C126.176 -0.0499537 133.843 0.10025 142.071 0.205483C145.419 0.147517 148.453 3.18549 148.355 6.55566C148.321 10.7889 148.317 15.0133 148.374 18.9211C148.525 29.1788 148.457 47.4464 148.557 60.5557C148.626 64.3633 145.18 67.1989 142.071 67.1095C140.438 67.1348 138.971 67.1652 137.715 67.2022C126.595 67.5294 126.572 66.8153 117.586 66.4163Z" fill="#CD0C7A"/>
<path d="M26.8372 41.5557H24.5932L30.4012 25.6497H32.7992L38.6292 41.5557H36.3632L34.9332 37.5957H28.2452L26.8372 41.5557ZM31.3252 29.0817L28.9052 35.7257H34.2952L31.8532 29.0817C31.7432 28.7737 31.6332 28.3997 31.5892 28.1577C31.5452 28.3777 31.4352 28.7517 31.3252 29.0817ZM46.6346 41.7977C42.1026 41.7977 39.0886 38.5417 39.0886 33.6137C39.0886 28.7077 42.1906 25.3857 46.7446 25.3857C50.3306 25.3857 53.0806 27.5197 53.6746 30.7757H51.3646C50.7706 28.7077 48.9886 27.4537 46.6786 27.4537C43.4666 27.4537 41.3546 29.8737 41.3546 33.5917C41.3546 37.3097 43.4666 39.7297 46.6786 39.7297C49.0106 39.7297 50.8586 38.4757 51.4526 36.5177H53.7406C53.0586 39.6857 50.2206 41.7977 46.6346 41.7977ZM58.5403 41.5557H56.3843V25.6497H58.5403V32.4917H66.4163V25.6497H68.5723V41.5557H66.4163V34.4937H58.5403V41.5557ZM81.9632 41.5557H72.2612V25.6497H81.9632V27.6297H74.4172V32.6017H81.2152V34.5157H74.4172V39.5537H81.9632V41.5557ZM83.5474 27.6297V25.6497H95.2734V27.6297H90.4994V41.5557H88.3434V27.6297H83.5474ZM107.143 41.5557H97.4409V25.6497H107.143V27.6297H99.5969V32.6017H106.395V34.5157H99.5969V39.5537H107.143V41.5557ZM112.423 41.5557H110.267V25.6497H116.273C119.683 25.6497 121.707 27.4537 121.707 30.4237C121.707 32.6237 120.607 34.2077 118.627 34.8457L121.861 41.5557H119.463L116.493 35.2637H112.423V41.5557ZM112.423 27.5857V33.3497H116.295C118.297 33.3497 119.441 32.2717 119.441 30.4457C119.441 28.5977 118.253 27.5857 116.273 27.5857H112.423Z" fill="white"/>
</svg>
