<svg width="41" height="134" viewBox="0 0 41 134" fill="none" xmlns="http://www.w3.org/2000/svg">
<path d="M21.373 72.5941C21.0405 75.4547 22.5099 77.7065 22.3022 81.1931C22.0945 84.6797 21.3151 85.2019 21.4905 89.1949C21.6658 93.1877 21.1327 97.1827 21.4529 98.9606C21.7733 100.738 20.8048 100.926 21.0199 103.451C21.235 105.975 21.1085 107.505 20.7938 109.713C20.479 111.921 20.2102 118.705 20.5969 121.171C20.9836 123.638 20.3126 126.451 20.1535 128.143C20.1039 128.67 20.0361 129.085 19.9655 129.403C19.9356 129.538 19.873 129.6 19.8112 129.6C19.8111 129.6 19.8111 129.6 19.8111 129.6C19.7341 129.6 19.6585 129.503 19.6487 129.33C19.6015 128.49 19.477 127.234 19.198 125.75C18.6777 122.984 19.2526 122.682 18.9853 118.946C18.7179 115.21 18.1834 112.966 18.529 108.571C18.8747 104.175 17.4283 103.166 18.248 96.9613C19.0676 90.757 17.555 90.104 17.3538 83.9212C17.1527 77.7383 17.9873 69.9337 17.9181 66.2066C17.8489 62.4795 17.6727 57.4737 17.8723 52.19C18.0719 46.9064 17.568 40.3839 17.9242 34.5516C18.2804 28.7194 18.7302 20.4738 19.0317 16.6644C19.3331 12.8553 19.4011 11.9268 19.2169 8.26026C19.111 6.15269 19.2108 3.24931 19.6002 0.7969C19.7962 -0.437311 20.069 -0.157638 20.1996 1.08464C20.3905 2.90125 20.2629 4.39249 20.6039 5.32851C21.2854 7.19887 21.5469 7.9938 21.1502 10.355C20.7536 12.7161 21.6549 13.8286 21.5512 15.205C21.4474 16.5814 20.9158 16.5588 21.3254 23.5573C21.735 30.5559 21.8395 34.3925 21.9379 37.0428C22.0362 39.6932 21.5748 45.2272 21.7413 49.5465C21.9079 53.8659 21.7552 62.647 22.0279 66.1868C22.3005 69.7265 21.7054 69.7337 21.373 72.5941Z" fill="#CD0C7A"/>
<path d="M9.3826 122.192C9.09469 121.667 8.37153 121.751 7.98852 121.143C7.59723 120.544 7.71223 120.281 7.13917 119.72C6.57559 119.149 6.14138 118.448 5.84719 118.237C5.55993 118.019 5.68767 117.838 5.31115 117.498C4.93895 117.153 4.75492 116.902 4.48708 116.543C4.22386 116.179 3.28852 115.187 2.92935 114.845C2.57596 114.498 2.21217 114.063 1.97204 113.822C1.89855 113.746 1.84044 113.686 1.79559 113.641C1.7766 113.622 1.76778 113.613 1.76777 113.613C1.76776 113.613 1.78154 113.626 1.80632 113.651C1.92673 113.769 2.10619 113.946 2.32767 114.146C2.74585 114.514 2.77157 114.574 3.32971 115.077C3.88978 115.578 4.28282 115.823 4.90316 116.451C5.5051 117.098 5.87595 117.014 6.68413 117.968C7.45611 118.959 7.84881 118.752 8.87121 119.486C9.89668 120.217 10.8506 121.48 11.4308 121.958C12.0204 122.428 12.8616 123.008 13.5867 123.784C14.2999 124.572 15.5392 125.186 16.2528 126.129C16.9611 127.077 17.9283 128.453 18.2964 129.167C18.6671 129.878 18.7492 130.06 19.4037 130.447C19.7798 130.669 20.1414 131.133 20.2191 131.752C20.2581 132.063 20.0227 132.219 19.7576 132.131C19.3707 132.002 19.2504 131.699 18.8894 131.794C18.1701 131.982 17.9006 132.026 17.8415 131.414C17.7766 130.808 17.052 131.217 16.9374 130.94C16.8223 130.664 17.143 130.35 15.9605 129.545C14.7901 128.727 14.2442 128.183 13.8463 127.828C13.4557 127.465 12.9472 126.402 12.3004 125.822C11.6628 125.232 10.5691 123.831 10.0119 123.383C9.46009 122.929 9.66162 122.726 9.3826 122.192Z" fill="#CD0C7A"/>
<path d="M30.6502 122.192C30.9381 121.667 31.6612 121.751 32.0443 121.143C32.4355 120.544 32.3205 120.281 32.8936 119.72C33.4572 119.149 33.8914 118.448 34.1856 118.237C34.4728 118.019 34.3451 117.838 34.7216 117.498C35.0938 117.153 35.2779 116.902 35.5457 116.543C35.8089 116.179 36.7443 115.187 37.1034 114.845C37.4568 114.498 37.8206 114.063 38.0607 113.822C38.1342 113.746 38.1923 113.686 38.2372 113.641C38.2562 113.622 38.265 113.613 38.265 113.613C38.265 113.613 38.2512 113.626 38.2265 113.651C38.1061 113.769 37.9266 113.946 37.7051 114.146C37.2869 114.514 37.2612 114.574 36.7031 115.077C36.143 115.578 35.75 115.823 35.1296 116.451C34.5277 117.098 34.1568 117.014 33.3486 117.968C32.5767 118.959 32.184 118.752 31.1616 119.486C30.1361 120.217 29.1822 121.48 28.602 121.958C28.0124 122.428 27.1712 123.008 26.4461 123.784C25.7329 124.572 24.4936 125.186 23.7799 126.129C23.0717 127.077 22.1044 128.453 21.7364 129.167C21.3657 129.878 21.2835 130.06 20.629 130.447C20.253 130.669 19.8914 131.133 19.8137 131.752C19.7747 132.063 20.0101 132.219 20.2751 132.131C20.6621 132.002 20.7824 131.699 21.1434 131.794C21.8627 131.982 22.1322 132.026 22.1913 131.414C22.2561 130.808 22.9808 131.217 23.0954 130.94C23.2105 130.664 22.8898 130.35 24.0723 129.545C25.2426 128.727 25.7886 128.183 26.1865 127.828C26.5771 127.465 27.0856 126.402 27.7324 125.822C28.3699 125.232 29.4637 123.831 30.0209 123.383C30.5727 122.929 30.3712 122.726 30.6502 122.192Z" fill="#CD0C7A"/>
</svg>
